<?xml version="1.0" encoding="utf-8"?>
<!-- Generator: Adobe Illustrator 24.0.1, SVG Export Plug-In . SVG Version: 6.00 Build 0)  -->
<svg version="1.1" id="Layer_1" xmlns="http://www.w3.org/2000/svg" xmlns:xlink="http://www.w3.org/1999/xlink" x="0px" y="0px"
	 viewBox="0 0 2000 2000" style="enable-background:new 0 0 2000 2000;" xml:space="preserve">
<style type="text/css">
	.st0{fill:#FFFFFF;}
	.st1{fill:#1BD1FE;}
	.st2{opacity:0.72;fill:#1BD1FE;}
</style>
<rect y="0" class="st0" width="2000" height="2000"/>
<g>
	<g>
		<path class="st1" d="M907.02,864.23h105.64v16.11h-44.08v110.53h-18.2V880.34h-43.36V864.23z"/>
		<path class="st1" d="M1086.64,862.59c19.54,0,35.81,6.19,48.8,18.56c13,12.37,19.49,27.88,19.49,46.53s-6.56,34.08-19.68,46.3
			s-29.66,18.33-49.62,18.33c-19.06,0-34.94-6.11-47.63-18.33c-12.7-12.22-19.04-27.53-19.04-45.94c0-18.89,6.39-34.52,19.18-46.89
			C1050.94,868.78,1067.1,862.59,1086.64,862.59z M1087.37,879.79c-14.47,0-26.36,4.53-35.68,13.58s-13.97,20.61-13.97,34.67
			c0,13.64,4.67,24.98,14.02,34.04c9.35,9.05,21.04,13.58,35.09,13.58c14.11,0,25.88-4.62,35.32-13.85
			c9.43-9.23,14.15-20.73,14.15-34.49c0-13.4-4.72-24.67-14.15-33.81C1112.7,884.37,1101.11,879.79,1087.37,879.79z"/>
		<path class="st1" d="M1255.59,864.41h22.62l-54.85,60.02l68.34,66.44h-24.71l-64.64-62.46v62.46h-18.1V864.41h18.1v57.85
			L1255.59,864.41z"/>
		<path class="st1" d="M1312.51,864.41h71.69v16.11h-53.59v38.56h51.78v16.2h-51.78v39.29h55.31v16.11h-73.41V864.41z"/>
		<path class="st1" d="M1512.54,864.41h17.2v126.46h-15.57l-84.55-97.39v97.39h-17.02V864.41h14.66l85.27,98.22V864.41z"/>
		<path class="st1" d="M976.86,1014.07c19.54,0,35.81,6.19,48.8,18.56c13,12.37,19.5,27.88,19.5,46.53s-6.56,34.08-19.68,46.3
			c-13.12,12.22-29.65,18.33-49.62,18.33c-19.06,0-34.93-6.11-47.63-18.33c-12.7-12.22-19.04-27.53-19.04-45.94
			c0-18.89,6.39-34.52,19.18-46.89C941.16,1020.26,957.32,1014.07,976.86,1014.07z M977.59,1031.27c-14.47,0-26.36,4.53-35.68,13.58
			c-9.32,9.05-13.97,20.61-13.97,34.67c0,13.64,4.67,24.98,14.02,34.04c9.34,9.05,21.04,13.58,35.09,13.58
			c14.11,0,25.88-4.62,35.32-13.85s14.16-20.73,14.16-34.49c0-13.4-4.72-24.67-14.16-33.81
			C1002.93,1035.84,991.33,1031.27,977.59,1031.27z"/>
		<path class="st1" d="M1176.42,1113.01v19.92c-13.28,7.24-28.61,10.86-45.99,10.86c-14.12,0-26.1-2.84-35.94-8.51
			c-9.84-5.67-17.62-13.49-23.35-23.45c-5.73-9.96-8.6-20.73-8.6-32.31c0-18.41,6.56-33.89,19.69-46.44
			c13.13-12.55,29.31-18.83,48.56-18.83c13.28,0,28.03,3.47,44.27,10.41v19.46c-14.79-8.45-29.24-12.67-43.36-12.67
			c-14.48,0-26.51,4.57-36.07,13.71c-9.57,9.14-14.35,20.59-14.35,34.35c0,13.88,4.71,25.29,14.12,34.22
			c9.41,8.93,21.45,13.4,36.12,13.4C1146.85,1127.14,1161.82,1122.43,1176.42,1113.01z"/>
		<path class="st1" d="M1198.69,1015.88h71.7V1032h-53.59v38.56h51.78v16.2h-51.78v39.29h55.31v16.11h-73.41V1015.88z"/>
		<path class="st1" d="M1331.77,1015.16h12.72l56.7,127.18h-18.53l-16.85-37.48h-53.95l-15.8,37.48h-18.61L1331.77,1015.16z
			 M1358.37,1088.76l-20.4-45.8l-18.92,45.8H1358.37z"/>
		<path class="st1" d="M1515.52,1015.88h17.2v126.46h-15.57l-84.55-97.39v97.39h-17.02v-126.46h14.66l85.27,98.22V1015.88z"/>
	</g>
	<g>
		<path class="st1" d="M524.6,1071.22c-14.16-18.69-23.84-40.6-28.16-64.38c-7.24-39.84,1.42-80.05,24.4-113.25
			c28.25-40.81,74.87-65.17,124.71-65.17c30.84,0,60.56,9.29,85.95,26.87c25.1,17.38,43.59,41.58,54.32,68.73
			c-10.76-18.12-25.44-34.12-43.57-46.67c-25.14-17.41-54.58-26.61-85.12-26.61c-49.32,0-95.47,24.12-123.44,64.52
			C500.65,962.99,498.91,1023.17,524.6,1071.22z"/>
		<g>
			<path class="st1" d="M758.04,847.66c-84.13-58.24-199.54-37.26-257.81,46.87c-47.8,69.05-42.22,159.16,7.82,221.45
				c0.91,1.17,1.84,2.32,2.86,3.47c0.16,0.24,0.35,0.45,0.59,0.69c5.26,6.19,11,12.09,17.16,17.64c3.31,2.96,6.75,5.85,10.33,8.57
				c0.43,0.37,0.88,0.69,1.31,1.01c2.21,1.71,4.48,3.36,6.81,4.96c1.84,1.28,3.71,2.54,5.6,3.74c0.37,0.24,0.77,0.48,1.15,0.72
				c1.04,0.64,2.08,1.28,3.12,1.92c0.35,0.21,0.69,0.43,1.07,0.64c82.96,49.32,191.11,26.66,246.86-53.89
				C863.18,1021.34,842.17,905.9,758.04,847.66z M787.21,1068.21c1.2-12.04,0.11-24.26-3.04-36.27
				c-6.06-23.06-18.34-41.72-40.94-53.81c-23.89-12.81-48.47-12.84-48.47-12.84s32.46,4.67,47.48,19.7c5.1,5.1,8.17,9.58,9.58,13.13
				c2.06,5.15,0.56,8.27-3.52,8.27c-5.31,0-27.7-18.44-54.82-18.44c-27.95,0-43.21,13.61-48.42,31.36
				c-4.99,17.03-0.93,36.3,11.88,44.81c13.69,9.07,25.7-4.62,22.93-13.24c-2.8-8.62-13.67-18.52-11.85-31.63
				c2.06-14.97,16.9-24.8,34.35-23.94c23.46,1.17,44.79,16.04,52.02,45.16c8.41,33.9-23.86,60.54-30.03,40.14
				c-10.65,18.26-51.7,42.92-58.72,11.9c-12.49,9.45-43.05,25.92-58,21.25c-14.55-4.54-0.48-23.94,17.46-16.36
				c-10.76-19.22-45.78-16.09-73.19-7.02c-4.19,1.41-8.19,2.94-11.93,4.56c-0.03,0-0.03,0-0.03,0c-2.59,1.12-5.07,2.27-7.34,3.47
				c-56.4-55.01-66.54-144.29-20.18-211.26c51.73-74.73,154.27-93.39,229.01-41.64C814.09,895.81,833.71,994.14,787.21,1068.21z"/>
			<path class="st1" d="M689.64,964.41c0,0-30.02-1.14-59.67,15.56c-28.48,16.05-27.35,29.87-24.91,36.34
				c2.45,6.47,10.88,9.15,17.94,1.98c8.71-8.85,9.69-30.64,28.94-41.26C673.8,964.98,689.64,964.41,689.64,964.41z"/>
			<path class="st1" d="M774.04,987.26c0,0-12.67-28.48-47.62-43.42c-32.8-14.02-53.03-10.94-60.46-6.65
				c-7.43,4.29-6.9,16.52,10.92,16.52s39.58-4.55,61.77,5.76C758.86,968.86,774.04,987.26,774.04,987.26z"/>
			<path class="st1" d="M650.19,944.73c-21.49,1.74-50.54,12.12-56.44,27.13c-3.2,8.14,5.06,12.43,13.41,4.08
				c9.1-9.1,11.62-15.41,21.16-21.65C637.29,948.41,650.19,944.73,650.19,944.73z"/>
			<path class="st1" d="M763.57,999.48c0,0,16.15,19.06,18.57,44.13c2.72,28.23-8.09,49.78-8.09,49.78s5.69-23.27,3.51-48.56
				C775.32,1018.91,763.57,999.48,763.57,999.48z"/>
			<path class="st2" d="M600.56,1088.01c0,0-20.02,1.47-42.84,8.99c-2.67,0.85-5.36,1.81-8.09,2.86c-0.99,0.37-1.95,0.77-2.91,1.15
				c-2.62,1.09-5.18,2.22-7.66,3.39c-11.74,5.53-21.65,11.74-27.57,15.75c-0.24-0.24-0.43-0.45-0.59-0.69
				c5.39-4.64,14.47-11.8,25.36-17.56c2.38-1.28,4.83-2.46,7.37-3.55c0,0,0,0,0.03,0c1.65-0.72,3.34-1.41,5.07-2.03
				c2.19-0.77,4.35-1.49,6.43-2.14C581.77,1085.93,600.56,1088.01,600.56,1088.01z"/>
			<path class="st1" d="M725.95,944.6c-32.02-13.34-52.06-10.7-59.31-6.61c-4.07,2.29-5.4,6.65-2.96,10.3
				c15.35,3.15,35.14-5.11,52.61-2.22c18.6,3.08,33.77,13.1,34.34,13.39C744.12,954.07,735.98,948.77,725.95,944.6z"/>
			<path class="st1" d="M635.69,984.99c9.33-9.33,18.01-14.48,40.67-18.9c-11.01,1.16-28.55,4.56-45.97,14.37
				c-27.37,15.42-26.28,28.7-23.93,34.92c0.6,1.58,1.57,2.92,2.79,3.93C624.4,1009.28,626.32,994.37,635.69,984.99z"/>
			<path class="st1" d="M657.57,1022.56c-0.59-13.18,4.08-22.99,21.28-31.69c-7.28,0.84-27.78,8.97-32.29,28.45
				c-7.09,30.6,7.55,42.87,13.72,45.32c1.57,0.62,3.21,0.81,4.79,0.59C667.88,1047.28,658.16,1035.8,657.57,1022.56z"/>
			<path class="st1" d="M647.55,945.56c-20.84,2.19-47.69,12.18-53.3,26.43c-1.11,2.83-0.8,5.17,0.42,6.66
				c12.92-5.69,16.44-16.86,24.9-22.79c6.4-4.48,12.21-7.16,22.48-8.34C644.22,946.69,646.13,946.02,647.55,945.56z"/>
		</g>
	</g>
</g>
</svg>
